<svg width="16" height="16" viewBox="0 0 16 16" fill="none" xmlns="http://www.w3.org/2000/svg">
    <g clip-path="url(#clip0_106_71)">
        <path d="M15.26 6.76358L8.99481 6.76331C8.71815 6.76331 8.4939 6.97092 8.4939 7.22708V9.08028C8.4939 9.33639 8.71815 9.54406 8.99478 9.54406H12.523C12.1366 10.4724 11.4155 11.2499 10.4956 11.7439L12 14.1552C14.4132 12.8629 15.84 10.5955 15.84 8.05719C15.84 7.69578 15.8112 7.43742 15.7537 7.1465C15.7099 6.92547 15.5027 6.76358 15.26 6.76358Z"
              fill="#167EE6"/>
        <path d="M8.15997 12.3285C6.43335 12.3285 4.92603 11.455 4.11648 10.1624L1.5123 11.5522C2.83755 13.679 5.32017 15.1111 8.15997 15.1111C9.55308 15.1111 10.8676 14.7638 12 14.1586V14.1552L10.4956 11.7439C9.80742 12.1134 9.0111 12.3285 8.15997 12.3285Z"
              fill="#12B347"/>
        <path d="M12 14.1586V14.1553L10.4956 11.7439C9.80742 12.1134 9.01116 12.3285 8.15997 12.3285V15.1111C9.55308 15.1111 10.8677 14.7638 12 14.1586Z"
              fill="#0F993E"/>
        <path d="M3.4852 8C3.4852 7.21198 3.71746 6.47473 4.11649 5.83759L1.51231 4.44775C0.85504 5.49295 0.47998 6.70678 0.47998 8C0.47998 9.29322 0.85504 10.5071 1.51231 11.5523L4.11649 10.1624C3.71746 9.52528 3.4852 8.78803 3.4852 8Z"
              fill="#FFD500"/>
        <path d="M8.15997 3.6715C9.2859 3.6715 10.3201 4.04194 11.1279 4.65814C11.3272 4.81014 11.6169 4.79916 11.7994 4.63014L13.2175 3.31708C13.4246 3.1253 13.4099 2.81139 13.1886 2.63366C11.8352 1.54647 10.0742 0.888885 8.15997 0.888885C5.32017 0.888885 2.83755 2.32102 1.5123 4.44775L4.11648 5.83758C4.92603 4.545 6.43335 3.6715 8.15997 3.6715Z"
              fill="#FF4B26"/>
        <path d="M11.1279 4.65814C11.3272 4.81014 11.6169 4.79916 11.7994 4.63014L13.2175 3.31708C13.4246 3.1253 13.4099 2.81139 13.1886 2.63366C11.8352 1.54644 10.0742 0.888885 8.15997 0.888885V3.6715C9.28587 3.6715 10.3201 4.04194 11.1279 4.65814Z"
              fill="#D93F21"/>
    </g>
    <defs>
        <clipPath id="clip0_106_71">
            <rect width="15.36" height="14.2222" fill="white" transform="translate(0.47998 0.888885)"/>
        </clipPath>
    </defs>
</svg>
