<svg width="100%" height="100%" viewBox="0 0 79 34" fill="none" xmlns="http://www.w3.org/2000/svg">
    <path d="M17.6367 24.9453C17.5 26.4902 17.1445 27.7754 16.5703 28.8008C16.0098 29.8125 15.3193 30.626 14.499 31.2412C13.6787 31.8428 12.7695 32.2666 11.7715 32.5127C10.7871 32.7588 9.80273 32.8818 8.81836 32.8818C7.79297 32.8818 6.80176 32.7383 5.84473 32.4512C4.90137 32.1777 4.06738 31.7607 3.34277 31.2002C2.61816 30.6396 2.03711 29.9355 1.59961 29.0879C1.17578 28.2402 0.963867 27.249 0.963867 26.1143C0.963867 25.2393 1.09375 24.5078 1.35352 23.9199C1.62695 23.332 1.96191 22.8604 2.3584 22.5049C2.75488 22.1494 3.17871 21.9033 3.62988 21.7666C4.08105 21.6162 4.49805 21.541 4.88086 21.541C5.27734 21.541 5.6875 21.6025 6.11133 21.7256C6.53516 21.8486 6.9248 22.0537 7.28027 22.3408C7.63574 22.6279 7.92285 23.0176 8.1416 23.5098C8.37402 23.9883 8.49023 24.5898 8.49023 25.3145C8.49023 25.3281 8.47656 25.458 8.44922 25.7041C8.43555 25.9365 8.36035 26.21 8.22363 26.5244C8.08691 26.8252 7.875 27.126 7.58789 27.4268C7.31445 27.7139 6.91113 27.9189 6.37793 28.042C6.76074 28.5205 7.20508 28.8828 7.71094 29.1289C8.23047 29.3613 8.66797 29.4775 9.02344 29.4775C9.37891 29.4775 9.78223 29.416 10.2334 29.293C10.6982 29.1699 11.1289 28.9648 11.5254 28.6777C11.9355 28.377 12.2773 27.9873 12.5508 27.5088C12.8379 27.0166 12.9814 26.4014 12.9814 25.6631C12.9814 24.8018 12.8311 24.0361 12.5303 23.3662C12.2432 22.6963 11.8672 22.1084 11.4023 21.6025C10.9512 21.083 10.4385 20.6318 9.86426 20.249C9.30371 19.8525 8.75684 19.4971 8.22363 19.1826C7.86816 18.9775 7.44434 18.7383 6.95215 18.4648C6.45996 18.1777 5.94727 17.8428 5.41406 17.46C4.88086 17.0635 4.35449 16.6191 3.83496 16.127C3.31543 15.6211 2.84375 15.0537 2.41992 14.4248C2.00977 13.7822 1.6748 13.0713 1.41504 12.292C1.16895 11.5127 1.0459 10.6514 1.0459 9.70801C1.0459 8.2998 1.29199 7.06934 1.78418 6.0166C2.27637 4.9502 2.91211 4.06152 3.69141 3.35059C4.48438 2.63965 5.37988 2.10645 6.37793 1.75098C7.37598 1.39551 8.3877 1.21777 9.41309 1.21777C10.4385 1.21777 11.416 1.36133 12.3457 1.64844C13.2754 1.92187 14.0889 2.3252 14.7861 2.8584C15.4971 3.37793 16.0576 4.00684 16.4678 4.74512C16.8916 5.46973 17.1035 6.2832 17.1035 7.18555C17.1035 8.10156 16.9531 8.82617 16.6523 9.35938C16.3516 9.89258 15.9893 10.2959 15.5654 10.5693C15.1553 10.8428 14.7314 11.0205 14.2939 11.1025C13.8701 11.1709 13.5283 11.2051 13.2686 11.2051C12.9404 11.2051 12.5986 11.1436 12.2432 11.0205C11.8877 10.8975 11.5596 10.7129 11.2588 10.4668C10.9717 10.2207 10.7324 9.91992 10.541 9.56445C10.3496 9.20898 10.2539 8.79199 10.2539 8.31348C10.2676 8.0127 10.3018 7.71191 10.3564 7.41113C10.4111 7.15137 10.4932 6.87109 10.6025 6.57031C10.7119 6.26953 10.876 5.98242 11.0947 5.70898C10.876 5.51758 10.6641 5.36719 10.459 5.25781C10.2539 5.14844 10.0625 5.06641 9.88477 5.01172C9.67969 4.95703 9.48145 4.92285 9.29004 4.90918C8.90723 4.90918 8.51758 4.97754 8.12109 5.11426C7.73828 5.25098 7.38281 5.45605 7.05469 5.72949C6.74023 6.00293 6.48047 6.35156 6.27539 6.77539C6.07031 7.18555 5.96777 7.6709 5.96777 8.23145C5.96777 8.8877 6.07031 9.48242 6.27539 10.0156C6.48047 10.5352 6.80176 11.041 7.23926 11.5332C7.67676 12.0254 8.23047 12.5244 8.90039 13.0303C9.58398 13.5361 10.3975 14.0898 11.3408 14.6914C12.4482 15.3887 13.3984 16.0859 14.1914 16.7832C14.998 17.4805 15.6543 18.1982 16.1602 18.9365C16.6797 19.6748 17.0625 20.4541 17.3086 21.2744C17.5547 22.0811 17.6777 22.9561 17.6777 23.8994C17.6777 24.0635 17.6777 24.2344 17.6777 24.4121C17.6777 24.5762 17.6641 24.7539 17.6367 24.9453Z"
          fill="#DE0B0B"/>
    <path d="M25.2656 0.787109C25.1562 2.56445 25.0537 4.32813 24.958 6.07812C24.8623 7.82812 24.7803 9.5918 24.7119 11.3691C25.1904 10.4668 25.7236 9.76953 26.3115 9.27734C26.8994 8.77148 27.4531 8.40234 27.9727 8.16992C28.5742 7.89648 29.1826 7.73242 29.7979 7.67773C30.7822 7.67773 31.623 7.91699 32.3203 8.39551C33.0176 8.87402 33.5918 9.55762 34.043 10.4463C34.4941 11.335 34.8223 12.4082 35.0273 13.666C35.2324 14.9102 35.335 16.3047 35.335 17.8496C35.335 20.4336 35.2461 22.9355 35.0684 25.3555C34.9043 27.7617 34.5488 30.1133 34.002 32.4102L29.2031 31.8359C29.5176 30.209 29.7568 28.6914 29.9209 27.2832C30.0986 25.875 30.2285 24.6445 30.3105 23.5918C30.4062 22.3613 30.4609 21.2334 30.4746 20.208C30.4746 18.9092 30.4541 17.7812 30.4131 16.8242C30.3857 15.8535 30.29 15.0537 30.126 14.4248C29.9756 13.7822 29.7363 13.3037 29.4082 12.9893C29.0801 12.6748 28.6221 12.5176 28.0342 12.5176C27.583 12.5859 27.1387 12.8594 26.7012 13.3379C26.5098 13.543 26.3184 13.8027 26.127 14.1172C25.9355 14.4316 25.7373 14.8213 25.5322 15.2861C25.3408 15.7373 25.1562 16.2705 24.9785 16.8857C24.8008 17.501 24.6436 18.2119 24.5068 19.0186C24.4658 20.4131 24.4385 21.8008 24.4248 23.1816C24.4248 24.5625 24.4248 25.9365 24.4248 27.3037C24.4248 28.165 24.4248 29.0332 24.4248 29.9082C24.4248 30.7832 24.4385 31.6514 24.4658 32.5127L19.8105 32.4102C19.9609 29.9082 20.0703 27.4062 20.1387 24.9043C20.2207 22.4023 20.2617 19.8799 20.2617 17.3369C20.2617 14.5479 20.2139 11.7793 20.1182 9.03125C20.0225 6.26953 19.8857 3.49414 19.708 0.705078L25.2656 0.787109Z"
          fill="#0B6CDE"/>
    <path d="M52.7051 27.5908C52.7051 28.3975 52.5205 29.1562 52.1514 29.8672C51.7822 30.5781 51.2832 31.1934 50.6543 31.7129C50.0254 32.2324 49.2871 32.6426 48.4395 32.9434C47.5918 33.2441 46.6895 33.3945 45.7324 33.3945C45.0898 33.3945 44.4404 33.3057 43.7842 33.1279C43.1279 32.9502 42.499 32.6562 41.8975 32.2461C41.2959 31.8359 40.7285 31.2959 40.1953 30.626C39.6621 29.9561 39.1973 29.1357 38.8008 28.165C38.418 27.1943 38.1104 26.0596 37.8779 24.7607C37.6592 23.4482 37.5498 21.9443 37.5498 20.249C37.5498 18.6494 37.6592 17.2344 37.8779 16.0039C38.1104 14.7734 38.418 13.7002 38.8008 12.7842C39.1973 11.8682 39.6553 11.1025 40.1748 10.4873C40.6943 9.8584 41.248 9.35254 41.8359 8.96973C42.4375 8.57324 43.0527 8.29297 43.6816 8.12891C44.3242 7.96484 44.9531 7.88281 45.5684 7.88281C46.4844 7.88281 47.3525 8.0332 48.1729 8.33398C48.9932 8.62109 49.7109 9.05176 50.3262 9.62598C50.9414 10.2002 51.4268 10.9111 51.7822 11.7588C52.1514 12.5928 52.3359 13.5566 52.3359 14.6504C52.3359 15.6348 52.1309 16.6328 51.7207 17.6445C51.3242 18.6426 50.7295 19.5928 49.9365 20.4951C49.1436 21.3838 48.1592 22.1973 46.9834 22.9355C45.8213 23.6602 44.4814 24.2344 42.9639 24.6582C43.0459 25.5059 43.1621 26.2783 43.3125 26.9756C43.4766 27.6729 43.6748 28.2676 43.9072 28.7598C44.1533 29.252 44.4336 29.6348 44.748 29.9082C45.0762 30.1816 45.4521 30.3184 45.876 30.3184C46.1494 30.3047 46.4092 30.2568 46.6553 30.1748C46.874 30.1064 47.0928 29.9971 47.3115 29.8467C47.5439 29.6963 47.7354 29.4775 47.8857 29.1904C47.5303 29.0264 47.2568 28.8145 47.0654 28.5547C46.874 28.2949 46.7305 28.0488 46.6348 27.8164C46.5254 27.543 46.4639 27.2559 46.4502 26.9551C46.4502 26.2988 46.5801 25.7656 46.8398 25.3555C47.0996 24.9453 47.4072 24.624 47.7627 24.3916C48.1182 24.1592 48.4805 24.002 48.8496 23.9199C49.2188 23.8242 49.5127 23.7764 49.7314 23.7764C49.9639 23.7764 50.2441 23.8242 50.5723 23.9199C50.9141 24.0156 51.2422 24.2002 51.5566 24.4736C51.8711 24.7471 52.1377 25.1367 52.3564 25.6426C52.5889 26.1348 52.7051 26.7842 52.7051 27.5908ZM47.6396 14.6914C47.6396 14.1992 47.5918 13.7344 47.4961 13.2969C47.4141 12.8457 47.2842 12.4561 47.1064 12.1279C46.9424 11.7998 46.7305 11.54 46.4707 11.3486C46.2246 11.1436 45.9375 11.041 45.6094 11.041C45.0488 11.041 44.5908 11.3008 44.2354 11.8203C43.8799 12.3262 43.5928 13.0029 43.374 13.8506C43.1553 14.6982 43.0049 15.6758 42.9229 16.7832C42.8408 17.8906 42.7998 19.0459 42.7998 20.249V21.7461C43.4971 21.377 44.1396 20.9395 44.7275 20.4336C45.3291 19.9277 45.8418 19.374 46.2656 18.7725C46.7031 18.1572 47.0381 17.5078 47.2705 16.8242C47.5166 16.1406 47.6396 15.4297 47.6396 14.6914Z"
          fill="#8E0BDE"/>
    <path d="M70.793 1.21777C70.4785 5.20996 70.2393 9.1748 70.0752 13.1123C69.9111 17.0361 69.8291 20.9941 69.8291 24.9863C69.8291 27.6523 69.8701 30.3252 69.9521 33.0049L65.2764 33.0869L65.4199 29.0264C64.873 30.0518 64.3125 30.8379 63.7383 31.3848C63.1641 31.9316 62.6377 32.3418 62.1592 32.6152C61.5986 32.9297 61.0449 33.1143 60.498 33.1689C59.8008 33.1689 59.0967 32.9707 58.3857 32.5742C57.6748 32.1777 57.0322 31.4941 56.458 30.5234C55.8838 29.5527 55.4121 28.2607 55.043 26.6475C54.6738 25.0205 54.4893 22.9834 54.4893 20.5361C54.4893 18.9229 54.585 17.501 54.7764 16.2705C54.9678 15.0264 55.2275 13.9463 55.5557 13.0303C55.8838 12.1143 56.2666 11.3486 56.7041 10.7334C57.1553 10.1045 57.6338 9.59863 58.1396 9.21582C58.6592 8.83301 59.1992 8.55957 59.7598 8.39551C60.3203 8.23145 60.874 8.14941 61.4209 8.14941C61.79 8.17676 62.1865 8.26562 62.6104 8.41602C62.9658 8.55273 63.3691 8.75781 63.8203 9.03125C64.2852 9.29102 64.7568 9.68066 65.2354 10.2002C65.1533 7.16504 65.0303 4.14355 64.8662 1.13574L70.793 1.21777ZM65.502 22.1768C65.502 19.5381 65.4609 16.8926 65.3789 14.2402C65.2285 14.0215 65.0645 13.7959 64.8867 13.5635C64.7227 13.3311 64.5381 13.1191 64.333 12.9277C64.1279 12.7227 63.9092 12.5586 63.6768 12.4355C63.4443 12.3125 63.1982 12.251 62.9385 12.251C62.5557 12.251 62.166 12.3877 61.7695 12.6611C61.3867 12.9209 61.0381 13.3789 60.7236 14.0352C60.4092 14.6777 60.1494 15.5391 59.9443 16.6191C59.7529 17.6992 59.6572 19.0596 59.6572 20.7002C59.6572 22.2178 59.7256 23.4756 59.8623 24.4736C59.999 25.4717 60.1836 26.2715 60.416 26.873C60.6484 27.4609 60.915 27.8779 61.2158 28.124C61.5166 28.3564 61.8379 28.4727 62.1797 28.4727C62.6992 28.4727 63.1436 28.3018 63.5127 27.96C63.8955 27.6045 64.21 27.1807 64.4561 26.6885C64.7158 26.1963 64.9277 25.6904 65.0918 25.1709C65.2559 24.6377 65.3926 24.1865 65.502 23.8174V22.1768Z"
          fill="#0BDE5F"/>
    <path d="M78.832 3.22754C78.832 3.66504 78.75 4.08203 78.5859 4.47852C78.4219 4.86133 78.1963 5.19629 77.9092 5.4834C77.6221 5.77051 77.2803 6.00293 76.8838 6.18066C76.501 6.34473 76.0908 6.42676 75.6533 6.42676C75.2158 6.42676 74.7988 6.34473 74.4023 6.18066C74.0195 6.00293 73.6846 5.77051 73.3975 5.4834C73.1104 5.19629 72.8779 4.86133 72.7002 4.47852C72.5361 4.08203 72.4541 3.66504 72.4541 3.22754C72.4541 2.79004 72.5361 2.37988 72.7002 1.99707C72.8779 1.60059 73.1104 1.25879 73.3975 0.97168C73.6846 0.68457 74.0195 0.458984 74.4023 0.294922C74.7988 0.117187 75.2158 0.0283203 75.6533 0.0283203C76.0908 0.0283203 76.501 0.117187 76.8838 0.294922C77.2803 0.458984 77.6221 0.68457 77.9092 0.97168C78.1963 1.25879 78.4219 1.60059 78.5859 1.99707C78.75 2.37988 78.832 2.79004 78.832 3.22754ZM78.832 9.44141C78.7227 10.5215 78.627 11.6904 78.5449 12.9482C78.4766 14.1924 78.415 15.4707 78.3604 16.7832C78.3193 18.0957 78.2852 19.415 78.2578 20.7412C78.2305 22.0674 78.21 23.332 78.1963 24.5352C78.1826 25.7383 78.1689 26.8662 78.1553 27.9189C78.1553 28.958 78.1553 29.8535 78.1553 30.6055V32.9229L73.5 33.0869C73.5273 32.1436 73.541 31.2275 73.541 30.3389C73.541 29.4502 73.541 28.5615 73.541 27.6729C73.541 26.1279 73.5273 24.624 73.5 23.1611C73.4727 21.6846 73.4248 20.208 73.3564 18.7314C73.3018 17.2549 73.2266 15.7578 73.1309 14.2402C73.0352 12.7227 72.9189 11.1504 72.7822 9.52344L78.832 9.44141Z"
          fill="#F7EE27"/>
</svg>
