<svg width="18" height="16" viewBox="0 0 18 16" fill="none" xmlns="http://www.w3.org/2000/svg">
    <path d="M12.7879 0H10.3328C7.84545 0 5.3356 1.70069 5.3356 5.50019C5.3356 7.46825 6.23642 9.00103 7.88774 9.87275L4.86536 14.9381C4.72206 15.1777 4.71831 15.4492 4.8553 15.6643C4.98905 15.8745 5.23364 16 5.50931 16H7.03822C7.38554 16 7.65635 15.8446 7.78622 15.5723L10.62 10.44H10.8269V15.3603C10.8269 15.7071 11.1429 16 11.5169 16H12.8525C13.272 16 13.5649 15.7288 13.5649 15.3405V0.700094C13.5649 0.287906 13.2454 0 12.7879 0ZM10.8269 8.16019H10.462C9.04739 8.16019 8.20286 7.091 8.20286 5.30009C8.20286 3.07325 9.2697 2.27984 10.2682 2.27984H10.8269V8.16019Z"
          fill="#D7143A"/>
</svg>
